<svg xmlns="http://www.w3.org/2000/svg" viewBox="0 0 32 40" x="0px" y="0px"><path d="M28.15674,14.46582H27.394c-.27545-2.92273-2.60138-5.23907-5.50824-6.269-.76648-3.8421-3.66833-3.53858-3.70019-3.53668a.49956.49956,0,0,0-.43848.49609v2.039c-.54767-.08331-1.10919-.14728-1.69159-.18823a2.92207,2.92207,0,0,0-2.80243-1.96259,2.834,2.834,0,0,0-2.88336,2.35468,17.013,17.013,0,0,0-2.48865.719C-.98944,11.65375,3.34937,23.17432,5.66113,26.62939c.61347,1.05909,2.171.64509,3.16407.72168a1.456,1.456,0,0,0,1.45459-1.45459,2.64891,2.64891,0,0,1,.0014-.37182,22.8505,22.8505,0,0,0,3.00934.17114c.69677,0,1.46759-.02478,2.28125-.06415v.30927a1.412,1.412,0,0,0,1.41015,1.41015h1.77539a1.43485,1.43485,0,0,0,1.37207-1.064s.17627-.69318.27784-1.09241a7.78877,7.78877,0,0,0,6.31744-5.01257h1.43207A1.33924,1.33924,0,0,0,29.5,18.8501V15.79834A1.33934,1.33934,0,0,0,28.15674,14.46582ZM13.25293,6.04443a1.87357,1.87357,0,0,1,1.94141,1.76368,1.68055,1.68055,0,0,1-.71546,1.35351h-2.451A1.74643,1.74643,0,0,1,13.25293,6.04443ZM28.5,18.8501a.33435.33435,0,0,1-.34326.332H26.38086v.0072a.4944.4944,0,0,0-.47754.34436A6.721,6.721,0,0,1,20.679,24.1264c.30187-1.18695.60522-2.37933.60522-2.37933a.50034.50034,0,0,0-.96973-.24609L19.16309,26.0293a.43463.43463,0,0,1-.40577.32177H16.98193a.41586.41586,0,0,1-.41015-.41015V23.98779a.50009.50009,0,0,0-1,0v.64185a29.04235,29.04235,0,0,1-5.292-.1106v-2.773a.5.5,0,0,0-1,0v3.19629c0,.009.00408.01691.00457.02582-.03808.31226.0199.69092-.00457.92828a.44979.44979,0,0,1-.45459.45459H6.96094a.53668.53668,0,0,1-.4458-.24267c-1.33692-2.26416-5.3711-10.042-1.15772-15.0708a8.89625,8.89625,0,0,1,5.03314-2.6297,2.4922,2.4922,0,0,0,.291.75372H10.3125a.5.5,0,0,0,0,1h6.21436a.5001.5001,0,0,0,0-1h-.70447a2.78035,2.78035,0,0,0,.35119-1.14068q.808.06546,1.57349.18157V9.31732a.5001.5001,0,0,0,1,.00006V5.67969c.65576.11865,1.84229.65869,2.21381,2.97558.15344.44666-.13025,1.46692.60357,1.50635.46015-.0357.525-.4107.4942-.81543,2.43531,1.03369,4.31244,3.05243,4.36615,5.61963a.49613.49613,0,0,0,.5.49463v.00537h1.23194a.34262.34262,0,0,1,.34326.33252Z"/><path d="M13.89746,15.8443V13.96588c.732.10217,1.31128.44061,1.29688,1.00336a.5.5,0,0,0,1-.00684,1.97749,1.97749,0,0,0-.604-1.32568,2.7,2.7,0,0,0-1.69287-.67236v-.49512a.5.5,0,0,0-1,0v.47931c-1.74518.156-3.11359,1.57562-1.751,3.20331a2.49385,2.49385,0,0,0,1.751.68335v2.00823c-.63165-.11151-1.17944-.37078-1.2749-.83709a.5.5,0,0,0-1.00006,0c.03863,1.18414,1.2157,1.68854,2.275,1.84521v.71826a.5.5,0,0,0,1,0v-.65606c2.02307-.00885,3.15839-1.74506,1.5669-3.42548A2.79807,2.79807,0,0,0,13.89746,15.8443Zm-2.044-.39948a.74834.74834,0,0,1,.14209-1.21679,3.25521,3.25521,0,0,1,.90192-.25543v1.86328A1.468,1.468,0,0,1,11.85345,15.44482Zm3.187,3.1128a1.9778,1.9778,0,0,1-1.143.34094V16.85364a1.77378,1.77378,0,0,1,.90381.38366C15.12073,17.50543,15.37866,18.19232,15.04047,18.55762Z"/><path d="M22.313,13.44189c-1.38117.19745-2.39752,1.62928-1.25,1.82325.60473-.05176.38385-.64612,1.35791-.8291a1.85609,1.85609,0,0,1,1.41748.68505.5.5,0,1,0,.70215-.71191A2.77215,2.77215,0,0,0,22.313,13.44189Z"/><text x="0" y="47" fill="#000000" font-size="5px" font-weight="bold" font-family="'Helvetica Neue', Helvetica, Arial-Unicode, Arial, Sans-serif">Created by sentya irma</text><text x="0" y="52" fill="#000000" font-size="5px" font-weight="bold" font-family="'Helvetica Neue', Helvetica, Arial-Unicode, Arial, Sans-serif">from the Noun Project</text></svg>